<mxfile host="app.diagrams.net" agent="Mozilla/5.0 (Windows NT 10.0; Win64; x64) AppleWebKit/537.36 (KHTML, like Gecko) Chrome/134.0.0.0 Safari/537.36" version="26.2.4">
  <diagram name="Página-1" id="AYDSpFf5N6qIkwC69UZT">
    <mxGraphModel dx="874" dy="465" grid="1" gridSize="10" guides="1" tooltips="1" connect="1" arrows="1" fold="1" page="1" pageScale="1" pageWidth="827" pageHeight="1169" math="0" shadow="0">
      <root>
        <mxCell id="0" />
        <mxCell id="1" parent="0" />
        <mxCell id="rWFnht8yeWVseF7HAIpk-12" style="edgeStyle=orthogonalEdgeStyle;rounded=0;orthogonalLoop=1;jettySize=auto;html=1;entryX=1;entryY=0.5;entryDx=0;entryDy=0;" edge="1" parent="1" source="rWFnht8yeWVseF7HAIpk-5" target="rWFnht8yeWVseF7HAIpk-6">
          <mxGeometry relative="1" as="geometry" />
        </mxCell>
        <mxCell id="rWFnht8yeWVseF7HAIpk-13" value="manda informações&amp;nbsp;&lt;div&gt;sobre os testes aplicados&lt;/div&gt;" style="edgeLabel;html=1;align=center;verticalAlign=middle;resizable=0;points=[];" vertex="1" connectable="0" parent="rWFnht8yeWVseF7HAIpk-12">
          <mxGeometry x="-0.2" y="-3" relative="1" as="geometry">
            <mxPoint as="offset" />
          </mxGeometry>
        </mxCell>
        <mxCell id="rWFnht8yeWVseF7HAIpk-5" value="bacma_mobile" style="image;aspect=fixed;perimeter=ellipsePerimeter;html=1;align=center;shadow=0;dashed=0;fontColor=#4277BB;labelBackgroundColor=default;fontSize=12;spacingTop=3;image=img/lib/ibm/analytics/device_analytics.svg;" vertex="1" parent="1">
          <mxGeometry x="390" y="280" width="80" height="80" as="geometry" />
        </mxCell>
        <mxCell id="rWFnht8yeWVseF7HAIpk-6" value="banco de dados" style="image;aspect=fixed;perimeter=ellipsePerimeter;html=1;align=center;shadow=0;dashed=0;fontColor=#4277BB;labelBackgroundColor=default;fontSize=12;spacingTop=3;image=img/lib/ibm/data/data_services.svg;" vertex="1" parent="1">
          <mxGeometry x="100" y="280" width="80" height="80" as="geometry" />
        </mxCell>
        <mxCell id="rWFnht8yeWVseF7HAIpk-8" style="edgeStyle=orthogonalEdgeStyle;rounded=0;orthogonalLoop=1;jettySize=auto;html=1;entryX=0.5;entryY=0;entryDx=0;entryDy=0;" edge="1" parent="1" source="rWFnht8yeWVseF7HAIpk-7" target="rWFnht8yeWVseF7HAIpk-5">
          <mxGeometry relative="1" as="geometry" />
        </mxCell>
        <mxCell id="rWFnht8yeWVseF7HAIpk-9" value="realiza login do&amp;nbsp;&lt;div&gt;aplicador no sistema&lt;/div&gt;" style="edgeLabel;html=1;align=center;verticalAlign=middle;resizable=0;points=[];" vertex="1" connectable="0" parent="rWFnht8yeWVseF7HAIpk-8">
          <mxGeometry x="-0.1333" y="2" relative="1" as="geometry">
            <mxPoint as="offset" />
          </mxGeometry>
        </mxCell>
        <mxCell id="rWFnht8yeWVseF7HAIpk-10" style="edgeStyle=orthogonalEdgeStyle;rounded=0;orthogonalLoop=1;jettySize=auto;html=1;entryX=0.5;entryY=0;entryDx=0;entryDy=0;" edge="1" parent="1" source="rWFnht8yeWVseF7HAIpk-7" target="rWFnht8yeWVseF7HAIpk-6">
          <mxGeometry relative="1" as="geometry" />
        </mxCell>
        <mxCell id="rWFnht8yeWVseF7HAIpk-11" value="informa dados de&lt;div&gt;login dos usuários&lt;/div&gt;" style="edgeLabel;html=1;align=center;verticalAlign=middle;resizable=0;points=[];" vertex="1" connectable="0" parent="rWFnht8yeWVseF7HAIpk-10">
          <mxGeometry x="-0.2" relative="1" as="geometry">
            <mxPoint as="offset" />
          </mxGeometry>
        </mxCell>
        <mxCell id="rWFnht8yeWVseF7HAIpk-7" value="serviço de login" style="image;aspect=fixed;perimeter=ellipsePerimeter;html=1;align=center;shadow=0;dashed=0;fontColor=#4277BB;labelBackgroundColor=default;fontSize=12;spacingTop=3;image=img/lib/ibm/users/user.svg;" vertex="1" parent="1">
          <mxGeometry x="240" y="80" width="80" height="80" as="geometry" />
        </mxCell>
      </root>
    </mxGraphModel>
  </diagram>
</mxfile>
